<?xml version="1.0" encoding="utf-8"?>
<svg xmlns="http://www.w3.org/2000/svg" xmlns:svg="http://www.w3.org/2000/svg" version="1.1" viewBox="0 0 1400 440">
	<title>The titlepage for the Standard Ebooks edition of The Warlord of Mars, by Edgar Rice Burroughs</title>
	<g aria-label="THE">
		<path d="m 605.10526,68.245613 h 18.33918 V 130 h 17.59065 V 68.245613 h 18.33918 V 52.807016 h -54.26901 z"/>
		<path d="M 688.29971,99.029239 H 713.1886 V 130 h 17.59064 V 52.807016 H 713.1886 V 83.590642 H 688.29971 V 52.807016 H 670.70906 V 130 h 17.59065 z"/>
		<path d="M 791.14474,52.807016 H 746.981 V 130 h 44.16374 v -15.4386 h -26.5731 V 99.029239 h 25.45029 V 83.590642 H 764.57164 V 68.245613 h 26.5731 z"/>
	</g>
	<g aria-label="WARLORD OF MARS">
		<path d="m 237.06066,230 h 19.46199 l 21.98831,-77.19298 h -19.46199 l -13.19298,52.95906 h -0.46784 l -14.03509,-52.95906 h -13.28655 l -14.03509,52.95906 h -0.46783 L 190.37061,152.80702 H 170.81505 L 192.80335,230 h 19.55556 l 12.35088,-43.32164 z"/>
		<path d="m 318.34575,152.80702 h -16.2807 L 270.90715,230 h 18.90059 l 5.7076,-15.4386 h 29.38012 L 330.60306,230 h 18.90059 z m 0.56141,46.31579 h -17.40351 l 8.60818,-22.45614 h 0.18714 z"/>
		<path d="M 357.42323,152.80702 V 230 h 17.59064 V 199.49708 L 398.59282,230 h 22.36258 l -26.5731,-31.90643 c 9.45029,-2.99416 15.81286,-10.76024 15.81286,-22.36258 0,-15.15789 -10.8538,-22.92397 -25.16959,-22.92397 z m 17.59064,34.24561 V 166.8421 h 2.05848 c 6.64328,0 14.5965,0.46784 14.5965,10.10527 0,9.63742 -7.95322,10.10526 -14.5965,10.10526 z"/>
		<path d="M 447.0826,152.80702 H 429.49196 V 230 h 44.16374 v -15.4386 h -26.5731 z"/>
		<path d="m 483.8443,191.35672 c 0,22.54971 16.09357,40.04679 38.92398,40.04679 22.17544,0 38.83041,-17.49708 38.83041,-40.04679 0,-22.5497 -17.40351,-39.95321 -38.83041,-39.95321 -21.23977,0 -38.92398,17.40351 -38.92398,39.95321 z m 18.99415,0 c 0,-11.50877 6.36257,-23.01754 19.92983,-23.01754 13.66082,0 19.83625,11.50877 19.83625,23.01754 0,11.50878 -5.80117,23.01755 -19.83625,23.01755 -14.40936,0 -19.92983,-11.50877 -19.92983,-23.01755 z"/>
		<path d="M 574.36036,152.80702 V 230 h 17.59065 V 199.49708 L 615.52996,230 h 22.36257 l -26.5731,-31.90643 c 9.45029,-2.99416 15.81287,-10.76024 15.81287,-22.36258 0,-15.15789 -10.85381,-22.92397 -25.1696,-22.92397 z m 17.59065,34.24561 V 166.8421 h 2.05848 c 6.64327,0 14.59649,0.46784 14.59649,10.10527 0,9.63742 -7.95322,10.10526 -14.59649,10.10526 z"/>
		<path d="M 646.42909,152.80702 V 230 h 22.36257 c 21.23977,0 38.92398,-16.09357 38.92398,-38.64328 0,-22.45614 -17.77778,-38.5497 -38.92398,-38.5497 z m 17.59064,61.47368 v -45.75439 h 2.71345 c 13.09942,0 21.98831,10.0117 21.98831,22.92398 -0.0936,12.91228 -8.98246,22.83041 -21.98831,22.83041 z"/>
		<path d="m 747.63086,191.35672 c 0,22.54971 16.09357,40.04679 38.92398,40.04679 22.17544,0 38.83041,-17.49708 38.83041,-40.04679 0,-22.5497 -17.40351,-39.95321 -38.83041,-39.95321 -21.23977,0 -38.92398,17.40351 -38.92398,39.95321 z m 18.99415,0 c 0,-11.50877 6.36257,-23.01754 19.92983,-23.01754 13.66082,0 19.83625,11.50877 19.83625,23.01754 0,11.50878 -5.80117,23.01755 -19.83625,23.01755 -14.40936,0 -19.92983,-11.50877 -19.92983,-23.01755 z"/>
		<path d="M 882.7785,152.80702 H 838.14692 V 230 h 17.59065 v -30.97076 h 24.98245 v -15.4386 h -24.98245 v -15.34503 h 27.04093 z"/>
		<path d="m 990.5417,230 h 17.5906 l -6.9239,-77.19298 H 982.49492 L 965.37211,197.34503 948.2493,152.80702 H 929.53585 L 922.61187,230 h 17.59065 l 3.64912,-45.75439 h 0.46784 l 15.81286,45.28655 h 10.47954 l 15.81286,-45.28655 h 0.46784 z"/>
		<path d="m 1059.3838,152.80702 h -16.2807 L 1011.9452,230 h 18.9006 l 5.7076,-15.4386 h 29.3801 L 1071.6411,230 h 18.9006 z m 0.5614,46.31579 h -17.4035 l 8.6082,-22.45614 h 0.1871 z"/>
		<path d="M 1098.4613,152.80702 V 230 h 17.5906 V 199.49708 L 1139.6308,230 h 22.3626 l -26.5731,-31.90643 c 9.4503,-2.99416 15.8129,-10.76024 15.8129,-22.36258 0,-15.15789 -10.8538,-22.92397 -25.1696,-22.92397 z m 17.5906,34.24561 V 166.8421 h 2.0585 c 6.6433,0 14.5965,0.46784 14.5965,10.10527 0,9.63742 -7.9532,10.10526 -14.5965,10.10526 z"/>
		<path d="m 1198.9744,151.40351 c -12.4444,0 -25.1696,9.16959 -25.1696,23.57895 0,8.04678 5.4269,15.25146 14.6901,19.83625 9.1696,4.5848 17.4035,7.11111 17.4035,12.72515 0,7.20468 -7.2982,7.57895 -11.1345,7.57895 -8.6082,0 -18.9006,-8.70176 -18.9006,-8.70176 l -8.7953,14.78363 c 0,0 10.9474,10.19883 29.0058,10.19883 15.0644,0 29.0995,-6.45614 29.0995,-24.88889 0,-10.10526 -9.4503,-17.40351 -18.0585,-21.05263 -8.7953,-3.74269 -16.0936,-6.83041 -16.0936,-11.13451 0,-4.21052 3.1813,-6.92397 9.1696,-6.92397 7.9532,0 15.6257,5.33333 15.6257,5.33333 l 7.1111,-14.03509 c 0,0 -9.9181,-7.29824 -23.9532,-7.29824 z"/>
	</g>
	<g aria-label="EDGAR RICE BURROUGHS">
		<path d="m 225.67489,332.10526 h -33.1228 V 390 h 33.1228 v -11.57895 h -19.92982 v -11.64912 h 19.08772 v -11.57895 h -19.08772 v -11.50877 h 19.92982 z"/>
		<path d="M 238.25932,332.10526 V 390 h 16.77193 c 15.92983,0 29.19299,-12.07018 29.19299,-28.98246 0,-16.8421 -13.33334,-28.91228 -29.19299,-28.91228 z m 13.19299,46.10527 v -34.31579 h 2.03508 c 9.82457,0 16.49123,7.50877 16.49123,17.19298 -0.0702,9.68421 -6.73684,17.12281 -16.49123,17.12281 z"/>
		<path d="m 347.41941,357.57895 h -26.73684 v 10.17544 h 13.33333 c 0,7.08772 -6.24561,11.15789 -12.5614,11.15789 -8.14035,0 -14.73684,-8 -14.73684,-17.82456 0,-10.03509 6.59649,-18.10526 14.73684,-18.10526 5.12281,0 9.54386,2.03508 12.91228,7.43859 l 8.63158,-9.47368 c -5.05263,-6.10526 -12.14035,-9.89474 -22.31579,-9.89474 -16.2807,0 -28.21052,13.40351 -28.21052,30.03509 0,16.5614 12.63157,29.96491 28.21052,29.96491 11.36842,0 23.57895,-6.24561 26.73684,-20.91228 z"/>
		<path d="M 387.58607,332.10526 H 375.37555 L 352.00713,390 h 14.17544 l 4.2807,-11.57895 h 22.03508 L 396.77906,390 h 14.17543 z m 0.42106,34.73685 H 374.9545 L 381.41064,350 h 0.14035 z"/>
		<path d="M 418.14419,332.10526 V 390 h 13.19298 V 367.12281 L 449.02138,390 h 16.77193 l -19.92982,-23.92982 c 7.08772,-2.24562 11.85965,-8.07018 11.85965,-16.77193 0,-11.36842 -8.14035,-17.19299 -18.8772,-17.19299 z m 13.19298,25.68421 v -15.15789 h 1.54386 c 4.98246,0 10.94737,0.35088 10.94737,7.57895 0,7.22807 -5.96491,7.57894 -10.94737,7.57894 z"/>
		<path d="M 497.63433,332.10526 V 390 h 13.19298 V 367.12281 L 528.51153,390 h 16.77192 l -19.92982,-23.92982 c 7.08772,-2.24562 11.85965,-8.07018 11.85965,-16.77193 0,-11.36842 -8.14035,-17.19299 -18.87719,-17.19299 z m 13.19298,25.68421 v -15.15789 h 1.54386 c 4.98246,0 10.94737,0.35088 10.94737,7.57895 0,7.22807 -5.96491,7.57894 -10.94737,7.57894 z"/>
		<path d="M 566.12883,332.10526 H 552.93585 V 390 h 13.19298 z"/>
		<path d="m 608.2056,378.07018 c -13.26316,0 -19.08772,-9.26316 -19.08772,-17.05264 0,-7.71929 5.82456,-16.98245 19.08772,-16.98245 6.73684,0 11.36842,3.57895 11.36842,3.57895 l 5.61404,-11.22807 c 0,0 -6.45614,-5.33334 -19.01755,-5.33334 -16.42105,0 -31.36842,13.47369 -31.36842,30.10527 0,16.5614 15.01755,29.89473 31.36842,29.89473 12.56141,0 19.01755,-5.33333 19.01755,-5.33333 l -5.61404,-11.22807 c 0,0 -4.63158,3.57895 -11.36842,3.57895 z"/>
		<path d="M 668.42709,332.10526 H 635.30428 V 390 h 33.12281 v -11.57895 h -19.92982 v -11.64912 h 19.08772 v -11.57895 h -19.08772 v -11.50877 h 19.92982 z"/>
		<path d="M 705.2001,332.10526 V 390 h 21.96491 c 12,0 18.94737,-6.59649 18.94737,-16.14035 0,-9.33333 -5.12281,-13.33333 -12.35088,-14.59649 4.91228,-2.52632 7.22807,-7.08772 7.22807,-12.42105 0,-11.01755 -7.85965,-14.73685 -17.82456,-14.73685 z m 13.19298,22.66667 V 342.2807 h 1.05263 c 5.75439,0 8.77193,1.75439 8.77193,5.89474 0,4.8421 -3.08772,6.59649 -8.77193,6.59649 z m 0,25.05263 v -13.68421 h 4.14035 c 6.24562,0 9.68421,1.89474 9.68421,7.22807 0,4.5614 -3.43859,6.45614 -9.68421,6.45614 z"/>
		<path d="m 801.4293,332.10526 h -13.19298 v 33.47369 c 0,9.68421 -2.94737,12.49123 -9.40351,12.49123 -6.45614,0 -9.40351,-2.80702 -9.40351,-12.49123 v -33.47369 h -13.19298 v 37.33334 c 0,14.31579 7.85965,21.61403 22.59649,21.61403 14.73684,0 22.59649,-7.29824 22.59649,-21.61403 z"/>
		<path d="M 814.15841,332.10526 V 390 h 13.19298 V 367.12281 L 845.0356,390 h 16.77193 l -19.92982,-23.92982 c 7.08772,-2.24562 11.85965,-8.07018 11.85965,-16.77193 0,-11.36842 -8.14035,-17.19299 -18.87719,-17.19299 z m 13.19298,25.68421 v -15.15789 h 1.54386 c 4.98246,0 10.94737,0.35088 10.94737,7.57895 0,7.22807 -5.96491,7.57894 -10.94737,7.57894 z"/>
		<path d="M 869.45999,332.10526 V 390 h 13.19298 V 367.12281 L 900.33718,390 h 16.77193 l -19.92983,-23.92982 c 7.08772,-2.24562 11.85965,-8.07018 11.85965,-16.77193 0,-11.36842 -8.14035,-17.19299 -18.87719,-17.19299 z m 13.19298,25.68421 v -15.15789 h 1.54386 c 4.98245,0 10.94737,0.35088 10.94737,7.57895 0,7.22807 -5.96492,7.57894 -10.94737,7.57894 z"/>
		<path d="m 922.16501,361.01754 c 0,16.91228 12.07017,30.03509 29.19298,30.03509 16.63158,0 29.12281,-13.12281 29.12281,-30.03509 0,-16.91228 -13.05263,-29.96491 -29.12281,-29.96491 -15.92982,0 -29.19298,13.05263 -29.19298,29.96491 z m 14.24561,0 c 0,-8.63157 4.77193,-17.26315 14.94737,-17.26315 10.24561,0 14.87719,8.63158 14.87719,17.26315 0,8.63158 -4.35087,17.26316 -14.87719,17.26316 -10.80702,0 -14.94737,-8.63158 -14.94737,-17.26316 z"/>
		<path d="m 1035.7933,332.10526 h -13.193 v 33.47369 c 0,9.68421 -2.9473,12.49123 -9.4035,12.49123 -6.4561,0 -9.4035,-2.80702 -9.4035,-12.49123 v -33.47369 h -13.19297 v 37.33334 c 0,14.31579 7.85965,21.61403 22.59647,21.61403 14.7369,0 22.5965,-7.29824 22.5965,-21.61403 z"/>
		<path d="m 1100.8734,357.57895 h -26.7369 v 10.17544 h 13.3334 c 0,7.08772 -6.2457,11.15789 -12.5614,11.15789 -8.1404,0 -14.7369,-8 -14.7369,-17.82456 0,-10.03509 6.5965,-18.10526 14.7369,-18.10526 5.1228,0 9.5438,2.03508 12.9122,7.43859 l 8.6316,-9.47368 c -5.0526,-6.10526 -12.1403,-9.89474 -22.3158,-9.89474 -16.2807,0 -28.2105,13.40351 -28.2105,30.03509 0,16.5614 12.6316,29.96491 28.2105,29.96491 11.3684,0 23.579,-6.24561 26.7369,-20.91228 z"/>
		<path d="m 1124.8295,366.77193 h 18.6666 V 390 h 13.193 v -57.89474 h -13.193 v 23.08772 h -18.6666 v -23.08772 h -13.193 V 390 h 13.193 z"/>
		<path d="m 1190.0531,331.05263 c -9.3333,0 -18.8771,6.8772 -18.8771,17.68421 0,6.03509 4.0701,11.4386 11.0175,14.8772 6.8772,3.43859 13.0526,5.33333 13.0526,9.54385 0,5.40351 -5.4737,5.68422 -8.3508,5.68422 -6.4562,0 -14.1755,-6.52632 -14.1755,-6.52632 l -6.5965,11.08772 c 0,0 8.2105,7.64912 21.7544,7.64912 11.2983,0 21.8246,-4.8421 21.8246,-18.66666 0,-7.57895 -7.0878,-13.05264 -13.5439,-15.78948 -6.5965,-2.80702 -12.0702,-5.12281 -12.0702,-8.35088 0,-3.15789 2.386,-5.19298 6.8772,-5.19298 5.9649,0 11.7193,4 11.7193,4 l 5.3334,-10.52631 c 0,0 -7.4386,-5.47369 -17.965,-5.47369 z"/>
	</g>
</svg>
